<svg height="512" viewBox="0 0 512 512" width="512" xmlns="http://www.w3.org/2000/svg"><g id="Virus"><g id="Flat"><path d="m272 512h-32c-26.8 0-33.365-37.635-8-46.629v-10.808a198.138 198.138 0 0 1 -99.427-41.195l-7.642 7.642c11.672 24.378-19.879 46.08-38.637 27.323l-22.627-22.627c-19.027-19.027 3.139-50.217 27.323-38.637l7.642-7.642a198.138 198.138 0 0 1 -41.195-99.427h-10.808c-8.991 25.357-46.629 18.805-46.629-8v-32c0-26.8 37.635-33.365 46.629-8h10.808a198.138 198.138 0 0 1 41.2-99.427l-7.642-7.642c-24.395 11.679-46.071-19.893-27.328-38.637 19.148-17.111 23.984-29.657 39.6-29.657a24.028 24.028 0 0 1 21.664 34.353l7.642 7.642a198.138 198.138 0 0 1 99.427-41.195v-10.808c-25.357-8.991-18.8-46.629 8-46.629h32c26.8 0 33.365 37.635 8 46.629v10.808a198.138 198.138 0 0 1 99.427 41.2l7.642-7.642c-11.679-24.392 19.9-46.06 38.637-27.323l22.627 22.627c18.993 18.994-3.06 50.189-27.315 38.629l-7.65 7.65a198.138 198.138 0 0 1 41.195 99.422h10.808c8.991-25.357 46.629-18.8 46.629 8v32c0 26.8-37.635 33.365-46.629 8h-10.808a198.138 198.138 0 0 1 -41.195 99.427l7.65 7.65a24.02 24.02 0 0 1 34.345 21.658c0 15.623-12.547 20.451-29.657 39.6-18.978 18.978-50.214-3.146-38.637-27.323l-7.642-7.642a198.138 198.138 0 0 1 -99.427 41.193v10.808c25.357 8.991 18.805 46.629-8 46.629z" fill="#bc85dd"/><path d="m465.371 232h-10.808a198.138 198.138 0 0 0 -41.195-99.427l7.65-7.65c24.255 11.56 46.308-19.635 27.315-38.629l-22.627-22.627a25.687 25.687 0 0 0 -4.282-3.462c-21.278 181.678-172.07 323.766-357.57 331.461-8.525 8.6-10.958 23.268-.187 34.04l22.627 22.627c18.758 18.757 50.31-2.945 38.637-27.323l7.642-7.642a198.138 198.138 0 0 0 99.427 41.195v10.808c-25.365 8.994-18.8 46.629 8 46.629h32c26.805 0 33.357-37.638 8-46.629v-10.808a198.138 198.138 0 0 0 99.427-41.195l7.642 7.642c-11.577 24.178 19.659 46.3 38.637 27.323 17.11-19.147 29.657-23.975 29.657-39.6a24.019 24.019 0 0 0 -34.345-21.658l-7.65-7.65a198.138 198.138 0 0 0 41.195-99.425h10.808c8.994 25.365 46.629 18.8 46.629-8v-32c0-26.8-37.638-33.357-46.629-8z" fill="#b96edb"/><g fill="#d2c1e8"><circle cx="256" cy="256" r="48"/><path d="m289 181.482c-41.02-14.407-46.062-62.348-8.885-74.934 36.363-12.308 78.73 20.924 67.2 53.748-7.766 22.104-35.132 29.33-58.315 21.186z"/><path d="m221.12 408.006c-52.351 0-73.839-62.679-27.883-78.237 36.24-12.267 78.734 20.912 67.2 53.748-5.666 16.135-22.188 24.489-39.317 24.489z"/><path d="m395.348 148.6c-8.1 5.571-12.177 15.526-11.378 27.25a16.864 16.864 0 0 0 -5.258 21.944l10.513 19.353a16.865 16.865 0 0 0 22.769 6.823l3.735-2c22.016 10.186 41.31-2.779 40.971-25.894-.49-33.32-37.974-63.561-61.352-47.476z"/><path d="m337.733 378.482c35.861 2.607 38.353 44.376.268 63.344-37.628 18.742-70.119-7.837-50.387-38.363l-.008-.015a15.18 15.18 0 0 1 6.821-20.355l22.951-11.431a15.179 15.179 0 0 1 20.355 6.82z"/><path d="m111.448 288.713-3.828 1.731c-31.31-17.082-56.5 16.164-34.518 53.115 21.751 36.559 63.2 30.983 63.134-4.978a16.884 16.884 0 0 0 6.7-21.573l-9.2-19.975a16.884 16.884 0 0 0 -22.288-8.32z"/><path d="m230.463 76.172c-10.082-27.06-58.332-22.832-77.492 3.659-13.7 18.942-4.932 40.486 18.689 44.738a16.863 16.863 0 0 0 20 10.445l21.34-5.484a16.864 16.864 0 0 0 12.162-20.419l-1.023-4.1c7.379-9.141 9.754-19.633 6.324-28.839z"/></g><path d="m224.134 105.012c7.384-9.142 9.759-19.634 6.329-28.84-3.759-10.089-12.826-15.823-23.711-17.681.153 1.817.248 3.651.248 5.509a64 64 0 0 1 -39.81 59.5 41.028 41.028 0 0 0 4.47 1.065 16.863 16.863 0 0 0 20 10.445l21.34-5.48a16.864 16.864 0 0 0 12.162-20.419z" fill="#c09fde"/><path d="m431.813 151.76c.113 1.4.187 2.811.187 4.24a51.993 51.993 0 0 1 -47.843 51.82l5.068 9.329a16.866 16.866 0 0 0 22.769 6.823l3.735-2c22.016 10.186 41.31-2.779 40.971-25.894-.263-17.894-11.2-34.898-24.887-44.318z" fill="#c09fde"/><path d="m142.939 317.008-9.2-19.975a16.884 16.884 0 0 0 -22.291-8.32l-.377.171a55.961 55.961 0 0 1 -33.171 61.671c22.512 28.636 58.4 21.493 58.341-11.974a16.884 16.884 0 0 0 6.698-21.573z" fill="#c09fde"/><path d="m337.733 378.482a15.14 15.14 0 0 0 -10.637-8.108 51.972 51.972 0 0 1 -43.418 61.057c6.73 15.334 29.4 22.811 54.323 10.4 38.085-18.973 35.593-60.742-.268-63.349z" fill="#c09fde"/><path d="m358.374 339.381a33.542 33.542 0 0 1 -18.159-5.153c-18.3-11.626-21.632-39.259-7.437-61.6s40.627-31.053 58.922-19.428c34.475 21.908 9.975 86.181-33.326 86.181z" fill="#d2c1e8"/><path d="m138.457 251.381a33.534 33.534 0 0 1 -18.159-5.153c-9.181-5.833-14.89-15.683-16.076-27.732-3.748-38.074 38.191-71.959 67.563-53.293 34.472 21.906 9.972 86.178-33.328 86.178z" fill="#d2c1e8"/><path d="m259.887 208.171a47.965 47.965 0 0 1 -35.887 79.829c-1.31 0-2.6-.067-3.887-.171a47.983 47.983 0 1 0 39.774-79.658z" fill="#c09fde"/><path d="m323.178 110.905a34.27 34.27 0 0 1 1.136 25.465c-7.763 22.1-35.129 29.33-58.316 21.186a61.608 61.608 0 0 1 -7.9-3.407c4.826 11.443 15.235 21.832 30.9 27.333 23.187 8.144 50.553.916 58.316-21.186 6.868-19.561-5.403-39.264-24.136-49.391z" fill="#c09fde"/><path d="m247.381 341.95a33.441 33.441 0 0 1 -1.308 17.56c-5.667 16.136-22.19 24.49-39.318 24.49-15.695 0-28.611-5.637-37.772-13.945 4.331 19.414 23.667 37.951 52.137 37.951 17.129 0 33.651-8.354 39.318-24.489 5.387-15.337-1.014-30.746-13.057-41.567z" fill="#c09fde"/><path d="m391.7 253.2q-.865-.55-1.755-1.039c9.136 27.65-13.34 67.836-47.58 67.836a33.79 33.79 0 0 1 -16.1-3.95 34.236 34.236 0 0 0 13.948 18.178 33.542 33.542 0 0 0 18.159 5.153c43.303.003 67.802-64.27 33.328-86.178z" fill="#c09fde"/><path d="m181.094 173.86c-8.006 26.263-31.91 50.14-63.194 50.14a48.845 48.845 0 0 1 -13.146-1.777c1.9 10.347 7.327 18.786 15.541 24a33.534 33.534 0 0 0 18.159 5.153c38.525.005 62.164-50.864 42.64-77.516z" fill="#c09fde"/><circle cx="404" cy="76" fill="#c09fde" r="12"/><circle cx="244" cy="20" fill="#d2c1e8" r="12"/><circle cx="84" cy="100" fill="#d2c1e8" r="12"/><circle cx="20" cy="244" fill="#d2c1e8" r="12"/><circle cx="264" cy="48" fill="#d2c1e8" r="8"/><circle cx="112" cy="104" fill="#d2c1e8" r="8"/><circle cx="24" cy="272" fill="#d2c1e8" r="8"/></g></g></svg>